<?xml version="1.0" encoding="UTF-8" standalone="no"?>
<!-- Created with Inkscape (http://www.inkscape.org/) -->

<svg
   xmlns:dc="http://purl.org/dc/elements/1.1/"
   xmlns:cc="http://creativecommons.org/ns#"
   xmlns:rdf="http://www.w3.org/1999/02/22-rdf-syntax-ns#"
   xmlns:svg="http://www.w3.org/2000/svg"
   xmlns="http://www.w3.org/2000/svg"
   xmlns:xlink="http://www.w3.org/1999/xlink"
   xmlns:sodipodi="http://sodipodi.sourceforge.net/DTD/sodipodi-0.dtd"
   xmlns:inkscape="http://www.inkscape.org/namespaces/inkscape"
   width="210mm"
   height="297mm"
   viewBox="0 0 210 297"
   version="1.1"
   id="svg8"
   inkscape:version="0.92.1 r15371"
   sodipodi:docname="strona 2.svg">
  <defs
     id="defs2" />
  <sodipodi:namedview
     id="base"
     pagecolor="#ffffff"
     bordercolor="#666666"
     borderopacity="1.0"
     inkscape:pageopacity="0.0"
     inkscape:pageshadow="2"
     inkscape:zoom="1.0447957"
     inkscape:cx="355.81689"
     inkscape:cy="675.09949"
     inkscape:document-units="mm"
     inkscape:current-layer="layer5"
     showgrid="false"
     showguides="false"
     inkscape:guide-bbox="true"
     inkscape:window-width="1920"
     inkscape:window-height="1003"
     inkscape:window-x="-9"
     inkscape:window-y="-9"
     inkscape:window-maximized="1"
     inkscape:snap-grids="true"
     inkscape:snap-to-guides="true">
    <sodipodi:guide
       position="44.979166,287"
       orientation="0,1"
       id="guide10"
       inkscape:locked="false"
       inkscape:label=""
       inkscape:color="rgb(0,0,255)" />
    <sodipodi:guide
       position="10,272.14286"
       orientation="1,0"
       id="guide12"
       inkscape:locked="false"
       inkscape:label=""
       inkscape:color="rgb(0,0,255)" />
    <sodipodi:guide
       position="200,314.85418"
       orientation="1,0"
       id="guide14"
       inkscape:locked="false"
       inkscape:label=""
       inkscape:color="rgb(0,0,255)" />
    <sodipodi:guide
       position="9.9999997,235"
       orientation="0,1"
       id="guide26"
       inkscape:locked="false"
       inkscape:label=""
       inkscape:color="rgb(0,0,255)" />
    <sodipodi:guide
       position="0,296.66918"
       orientation="1,0"
       id="guide36"
       inkscape:locked="false"
       inkscape:label=""
       inkscape:color="rgb(0,0,255)" />
    <sodipodi:guide
       position="210,293.99649"
       orientation="1,0"
       id="guide38"
       inkscape:locked="false"
       inkscape:label=""
       inkscape:color="rgb(0,0,255)" />
    <sodipodi:guide
       position="4.535714,271.38691"
       orientation="1,0"
       id="guide63"
       inkscape:locked="false" />
    <sodipodi:guide
       position="9.9999998,265.32075"
       orientation="0,1"
       id="guide283"
       inkscape:locked="false" />
    <sodipodi:guide
       position="27.597328,114.02853"
       orientation="0,1"
       id="guide1229"
       inkscape:locked="false" />
    <sodipodi:guide
       position="218.65576,107.96318"
       orientation="0,1"
       id="guide1233"
       inkscape:locked="false" />
    <sodipodi:guide
       position="68.075224,208.56155"
       orientation="0,1"
       id="guide4684"
       inkscape:locked="false" />
  </sodipodi:namedview>
  <metadata
     id="metadata5">
    <rdf:RDF>
      <cc:Work
         rdf:about="">
        <dc:format>image/svg+xml</dc:format>
        <dc:type
           rdf:resource="http://purl.org/dc/dcmitype/StillImage" />
        <dc:title />
      </cc:Work>
    </rdf:RDF>
  </metadata>
  <g
     inkscape:groupmode="layer"
     id="layer2"
     inkscape:label="TŁO"
     style="display:inline;opacity:1"
     sodipodi:insensitive="true">
    <rect
       style="display:inline;fill:#ffbe26;fill-opacity:1;stroke:none;stroke-width:0.44457379"
       id="rect34"
       width="209.97264"
       height="296.88275"
       x="0"
       y="0.33082077" />
    <path
       style="fill:#ffbe26;fill-opacity:1;stroke:none;stroke-width:0.54676378"
       d="M 17.390669,67.286091 V 37.760848 H 188.50722 359.62376 l 3.02589,1.132129 c 4.00411,1.498133 8.5565,5.694003 10.52335,9.699214 l 1.52778,3.111133 v 15.582767 15.582767 l -1.52778,3.111134 c -1.96685,4.005211 -6.51924,8.201081 -10.52335,9.699213 l -3.02589,1.132129 H 188.50722 17.390669 Z m 234.454621,25.324266 0.16634,-2.287299 -2.90016,0.283898 c -3.53348,0.345893 -4.71001,-0.386786 -5.16968,-3.219401 -0.24013,-1.479814 -0.12427,-2.09933 0.42256,-2.259334 0.41438,-0.121249 2.2912,-0.656652 4.1707,-1.189784 l 3.41727,-0.969332 v -2.966196 c 0,-1.631409 -0.18453,-2.87351 -0.41007,-2.760224 -5.7939,2.910179 -10.49841,3.800729 -13.99027,2.648313 -2.3586,-0.778408 -4.7542,-3.167112 -5.64833,-5.63205 -1.40685,-3.878446 -1.90772,-3.692274 9.93354,-3.692274 h 10.66189 v -3.719993 c 0,-5.11152 -1.83243,-8.826159 -5.3838,-10.913866 -2.20531,-1.296415 -3.127,-1.494411 -6.91838,-1.486208 -3.44152,0.0074 -4.85702,0.265716 -6.63911,1.21136 -3.03097,1.608353 -5.91318,5.083618 -6.82864,8.233739 -0.94032,3.235662 -0.93343,9.572568 0.0134,12.326192 1.414,4.112229 5.68858,7.730038 10.00111,8.464489 l 2.3597,0.401871 0.33709,3.122448 c 0.36493,3.380354 0.96487,4.406532 3.49026,5.970009 1.24572,0.771232 2.49519,0.980085 5.19425,0.868228 l 3.55397,-0.147282 0.16634,-2.287304 z M 89.572014,84.316902 c 1.047829,-0.556817 2.458742,-1.823421 3.135362,-2.814676 l 1.230219,-1.802282 v 2.541294 2.541294 h 2.733818 2.733819 V 68.653001 52.52347 h -3.0072 -3.007201 v 1.970313 1.970314 l -1.901983,-1.669963 c -4.837613,-4.247479 -12.228869,-2.352074 -15.299117,3.923287 -4.489379,9.175961 -1.969509,22.475354 4.844824,25.570052 2.869012,1.302949 6.119839,1.314155 8.537459,0.02943 z m 32.611366,0.114105 c 1.04115,-0.494059 2.49308,-1.781392 3.22652,-2.860741 l 1.33352,-1.962454 v 2.58736 2.58736 h 2.73382 2.73382 V 63.458745 42.134958 h -3.0072 -3.0072 v 7.210224 7.210223 l -1.5036,-1.434419 c -1.90954,-1.821683 -3.975,-2.599902 -6.87015,-2.588522 -7.36819,0.02896 -12.48371,9.506195 -10.84401,20.09011 0.63753,4.115133 2.49788,8.500816 4.25934,10.041161 3.08199,2.695099 7.48999,3.406845 10.94514,1.767272 z m 49.2255,-0.486724 c 4.97756,-2.480425 7.34673,-7.401672 7.36148,-15.291282 0.02,-10.700298 -4.85884,-16.703339 -13.54353,-16.664287 -7.77952,0.03498 -12.50649,6.333441 -12.50649,16.664287 0,5.678588 1.05772,9.381161 3.5403,12.392968 3.58779,4.352613 9.83227,5.54737 15.14824,2.898314 z m 129.08629,0.53817 c 2.23113,-0.929462 6.13353,-4.444107 6.13353,-5.52408 0,-0.374745 -0.89077,-1.360775 -1.97948,-2.191176 l -1.97948,-1.50982 -1.08826,1.345304 c -2.577,3.185668 -5.9841,4.085622 -9.19043,2.427564 -1.80761,-0.934751 -3.49205,-3.890352 -3.9666,-6.959971 l -0.31697,-2.050364 h 10.16006 10.16005 l -0.31942,-3.809979 c -0.74404,-8.874909 -5.60994,-14.209209 -12.96151,-14.209209 -5.19664,0 -9.52627,2.941574 -11.86495,8.061104 -1.32134,2.892496 -1.32134,14.289854 0,17.18235 1.34797,2.950792 4.15281,5.923697 6.666,7.065415 2.72147,1.236335 7.79504,1.319486 10.54746,0.172862 z M 45.27562,76.034311 v -8.74822 h 1.889877 c 1.749487,0 2.470431,0.647523 9.705057,8.71669 l 7.81518,8.716689 4.0096,0.03153 c 2.311935,0.01818 3.932433,-0.188593 3.827345,-0.488363 -0.100238,-0.285944 -3.57606,-4.226256 -7.724048,-8.756251 -4.347228,-4.747586 -7.242217,-8.322305 -6.834547,-8.439265 0.388987,-0.1116 1.752967,-0.486938 3.031066,-0.834085 5.967886,-1.620949 9.090243,-8.17774 7.179449,-15.076477 -0.924539,-3.337958 -2.544305,-5.194894 -5.899807,-6.763674 -2.880875,-1.34688 -3.630656,-1.440192 -13.035134,-1.62227 L 39.261219,42.577428 V 63.67998 84.782532 h 3.007201 3.0072 z m 101.56988,-6.971237 0.14521,-15.446077 h -3.2891 -3.2891 V 69.22705 84.837103 l 3.1439,-0.163977 3.14389,-0.163976 z m 51.3958,7.791383 c 1.00856,-4.210081 2.29282,-9.746064 2.85391,-12.302184 0.56109,-2.556121 1.04456,-4.032383 1.0744,-3.280583 0.0298,0.7518 1.23539,6.287783 2.67901,12.302185 l 2.62478,10.935275 h 3.19289 3.1929 l 4.2721,-15.856149 c 2.34965,-8.720882 4.27742,-15.91766 4.28394,-15.99284 0.007,-0.07518 -1.30589,-0.136691 -2.91646,-0.136691 h -2.92831 l -2.55371,10.538705 c -1.40455,5.796288 -2.70369,11.462876 -2.88699,12.592419 -0.1833,1.129543 -0.41666,1.97032 -0.51859,1.868394 -0.10193,-0.101926 -1.30644,-5.337939 -2.6767,-11.635583 -1.37026,-6.297644 -2.62696,-11.892512 -2.79268,-12.433039 -0.25157,-0.820555 -0.80762,-0.955932 -3.36866,-0.820146 l -3.06735,0.162632 -2.78607,12.685635 -2.78607,12.685635 -2.93696,-12.822326 -2.93697,-12.822326 h -2.9568 c -2.56035,0 -2.91849,0.128293 -2.67105,0.956836 0.15718,0.526261 2.02511,7.476995 4.15098,15.446077 2.12587,7.969081 3.97923,14.809161 4.11858,15.200177 0.17767,0.498529 1.18744,0.661887 3.37975,0.546764 l 3.12638,-0.164174 z m 80.50244,5.210591 v -2.717483 l -6.79636,-0.153026 -6.79636,-0.153027 6.85678,-12.575566 c 3.77123,-6.916562 6.97893,-12.883121 7.12824,-13.259021 0.21188,-0.533436 -2.2017,-0.683455 -10.99569,-0.683455 h -11.26716 v 2.716467 2.716467 l 6.24735,0.154043 6.24735,0.154042 -7.04942,12.848949 c -3.87717,7.066921 -7.05755,13.033481 -7.06749,13.259021 -0.01,0.22554 5.27186,0.410073 11.73734,0.410073 h 11.75542 z m 41.55405,-7.66327 V 64.021024 l 2.18706,-1.447324 c 1.9308,-1.277747 2.18705,-1.69737 2.18705,-3.581434 v -2.134109 l -2.05036,1.394017 -2.05037,1.394017 -0.15023,-8.755616 -0.15024,-8.755617 h -2.99365 -2.99366 V 52.724195 63.31343 l -2.18706,1.447325 c -1.96125,1.297898 -2.18705,1.679022 -2.18705,3.691516 v 2.244193 l 1.87719,-1.431805 c 1.03246,-0.787492 2.01663,-1.431804 2.18706,-1.431804 0.17042,0 0.30986,3.813677 0.30986,8.474838 v 8.474839 h 3.0072 3.0072 z M 147.16195,48.750859 c 1.45351,-1.453507 1.34117,-4.39385 -0.21604,-5.654804 -1.3127,-1.062959 -4.39022,-1.268707 -6.01004,-0.401802 -2.61601,1.400045 -2.65592,5.380051 -0.0685,6.833136 1.83571,1.030936 4.86025,0.657813 6.2946,-0.77653 z"
       id="path1121"
       inkscape:connector-curvature="0"
       transform="scale(0.26458333)" />
    <path
       style="fill:#ffbe26;fill-opacity:1;stroke:none;stroke-width:0.54676378"
       d="M 110.25849,178.41426 17.171963,178.27599 V 149.0257 119.77541 H 206.51073 c 169.2429,0 189.68407,0.0899 192.59213,0.84739 5.9598,1.55234 10.3287,5.255 12.98074,11.00126 1.1362,2.46183 1.23095,3.54746 1.39953,16.0363 0.15325,11.35415 0.0374,13.92542 -0.75997,16.87135 -0.9029,3.33564 -3.37601,7.2981 -5.9339,9.50739 -2.15575,1.86193 -6.42367,3.75511 -8.97565,3.98144 -3.61355,0.32047 -177.02008,0.55789 -287.55512,0.39372 z"
       id="path1142"
       inkscape:connector-curvature="0"
       transform="scale(0.26458333)" />
  </g>
  <g
     inkscape:groupmode="layer"
     id="layer3"
     inkscape:label="DRUGIE TŁO"
     style="display:inline">
    <rect
       style="display:inline;fill:#ffffff;stroke:none;stroke-width:0.20981713"
       id="rect46-1-9"
       width="59.89933"
       height="15.613094"
       x="39.273144"
       y="10.000001"
       rx="0"
       ry="5.0781212" />
    <rect
       style="display:inline;fill:#ffffff;stroke:none;stroke-width:0.20981713"
       id="rect46-1"
       width="59.89933"
       height="15.613094"
       x="10"
       y="10.000001"
       rx="0"
       ry="0" />
    <use
       x="0"
       y="0"
       xlink:href="#rect46-1-9"
       id="use95"
       width="100%"
       height="100%" />
    <use
       x="0"
       y="0"
       xlink:href="#rect46-1"
       id="use97"
       transform="matrix(1.0912245,0,0,1,-6.3765309,0)"
       width="100%"
       height="100%" />
    <rect
       style="display:inline;fill:#ffffff;stroke:none;stroke-width:0.21917851"
       id="rect46-1-6"
       width="65.363617"
       height="15.613094"
       x="4.5357141"
       y="31.679262"
       rx="0"
       ry="0" />
    <use
       id="use105"
       xlink:href="#rect46-1-9"
       y="0"
       x="0"
       width="100%"
       height="100%" />
    <use
       x="0"
       y="0"
       xlink:href="#use105"
       id="use107"
       width="100%"
       height="100%" />
    <use
       x="0"
       y="0"
       xlink:href="#use107"
       id="use109"
       transform="translate(10.289877,21.67925)"
       width="100%"
       height="100%" />
    <use
       x="0"
       y="0"
       xlink:href="#use109"
       id="use111"
       transform="translate(-10.289877,-21.67925)"
       width="100%"
       height="100%" />
    <use
       x="0"
       y="0"
       xlink:href="#use111"
       id="use113"
       width="100%"
       height="100%" />
    <use
       x="0"
       y="0"
       xlink:href="#use113"
       id="use115"
       width="100%"
       height="100%" />
    <use
       x="0"
       y="0"
       xlink:href="#use115"
       id="use117"
       width="100%"
       height="100%" />
    <use
       x="0"
       y="0"
       xlink:href="#use117"
       id="use119"
       width="100%"
       height="100%" />
    <use
       x="0"
       y="0"
       xlink:href="#use119"
       id="use121"
       width="100%"
       height="100%" />
    <use
       x="0"
       y="0"
       xlink:href="#use121"
       id="use123"
       width="100%"
       height="100%" />
    <use
       x="0"
       y="0"
       xlink:href="#use123"
       id="use125"
       width="100%"
       height="100%" />
    <use
       x="0"
       y="0"
       xlink:href="#use125"
       id="use127"
       width="100%"
       height="100%" />
    <use
       x="0"
       y="0"
       xlink:href="#use127"
       id="use129"
       width="100%"
       height="100%" />
    <use
       x="0"
       y="0"
       xlink:href="#use129"
       id="use131"
       width="100%"
       height="100%" />
    <use
       x="0"
       y="0"
       xlink:href="#use131"
       id="use133"
       width="100%"
       height="100%" />
    <use
       x="0"
       y="0"
       xlink:href="#use133"
       id="use135"
       width="100%"
       height="100%" />
    <use
       x="0"
       y="0"
       xlink:href="#use135"
       id="use137"
       width="100%"
       height="100%" />
    <use
       x="0"
       y="0"
       xlink:href="#use137"
       id="use139"
       width="100%"
       height="100%" />
    <use
       x="0"
       y="0"
       xlink:href="#use139"
       id="use141"
       width="100%"
       height="100%" />
    <use
       x="0"
       y="0"
       xlink:href="#use141"
       id="use143"
       width="100%"
       height="100%" />
    <use
       x="0"
       y="0"
       xlink:href="#use143"
       id="use145"
       width="100%"
       height="100%" />
    <use
       x="0"
       y="0"
       xlink:href="#use145"
       id="use147"
       width="100%"
       height="100%" />
    <use
       x="0"
       y="0"
       xlink:href="#use147"
       id="use149"
       width="100%"
       height="100%" />
    <use
       x="0"
       y="0"
       xlink:href="#use149"
       id="use151"
       width="100%"
       height="100%" />
    <use
       x="0"
       y="0"
       xlink:href="#use151"
       id="use153"
       width="100%"
       height="100%" />
    <use
       x="0"
       y="0"
       xlink:href="#use153"
       id="use155"
       width="100%"
       height="100%" />
    <use
       x="0"
       y="0"
       xlink:href="#use155"
       id="use157"
       width="100%"
       height="100%" />
    <use
       x="0"
       y="0"
       xlink:href="#use157"
       id="use159"
       width="100%"
       height="100%" />
    <use
       x="0"
       y="0"
       xlink:href="#use159"
       id="use161"
       width="100%"
       height="100%" />
    <use
       x="0"
       y="0"
       xlink:href="#use161"
       id="use163"
       width="100%"
       height="100%" />
    <use
       x="0"
       y="0"
       xlink:href="#use163"
       id="use165"
       width="100%"
       height="100%" />
    <use
       x="0"
       y="0"
       xlink:href="#use165"
       id="use167"
       width="100%"
       height="100%" />
    <use
       x="0"
       y="0"
       xlink:href="#use167"
       id="use169"
       width="100%"
       height="100%" />
    <use
       x="0"
       y="0"
       xlink:href="#use169"
       id="use171"
       width="100%"
       height="100%" />
    <use
       x="0"
       y="0"
       xlink:href="#use171"
       id="use173"
       width="100%"
       height="100%" />
    <use
       x="0"
       y="0"
       xlink:href="#use173"
       id="use175"
       width="100%"
       height="100%" />
    <use
       x="0"
       y="0"
       xlink:href="#use175"
       id="use177"
       width="100%"
       height="100%" />
    <use
       x="0"
       y="0"
       xlink:href="#use177"
       id="use179"
       width="100%"
       height="100%" />
    <use
       x="0"
       y="0"
       xlink:href="#use179"
       id="use181"
       width="100%"
       height="100%" />
    <use
       x="0"
       y="0"
       xlink:href="#use181"
       id="use183"
       width="100%"
       height="100%" />
    <use
       x="0"
       y="0"
       xlink:href="#use183"
       id="use185"
       width="100%"
       height="100%" />
    <use
       x="0"
       y="0"
       xlink:href="#use185"
       id="use187"
       width="100%"
       height="100%" />
    <use
       x="0"
       y="0"
       xlink:href="#use187"
       id="use189"
       width="100%"
       height="100%" />
    <use
       x="0"
       y="0"
       xlink:href="#use189"
       id="use191"
       width="100%"
       height="100%" />
    <use
       x="0"
       y="0"
       xlink:href="#use191"
       id="use193"
       width="100%"
       height="100%" />
    <use
       x="0"
       y="0"
       xlink:href="#use193"
       id="use195"
       width="100%"
       height="100%" />
    <use
       x="0"
       y="0"
       xlink:href="#use195"
       id="use197"
       width="100%"
       height="100%" />
    <use
       x="0"
       y="0"
       xlink:href="#use197"
       id="use199"
       width="100%"
       height="100%" />
    <use
       x="0"
       y="0"
       xlink:href="#use199"
       id="use201"
       width="100%"
       height="100%" />
    <use
       x="0"
       y="0"
       xlink:href="#use201"
       id="use203"
       width="100%"
       height="100%" />
    <use
       x="0"
       y="0"
       xlink:href="#use203"
       id="use205"
       width="100%"
       height="100%" />
    <use
       x="0"
       y="0"
       xlink:href="#use205"
       id="use207"
       width="100%"
       height="100%" />
    <use
       x="0"
       y="0"
       xlink:href="#use207"
       id="use209"
       width="100%"
       height="100%" />
    <use
       x="0"
       y="0"
       xlink:href="#use209"
       id="use211"
       width="100%"
       height="100%" />
    <use
       x="0"
       y="0"
       xlink:href="#use211"
       id="use213"
       width="100%"
       height="100%" />
    <use
       x="0"
       y="0"
       xlink:href="#use213"
       id="use215"
       width="100%"
       height="100%" />
    <use
       x="0"
       y="0"
       xlink:href="#use215"
       id="use217"
       width="100%"
       height="100%" />
    <use
       x="0"
       y="0"
       xlink:href="#use217"
       id="use219"
       width="100%"
       height="100%" />
    <use
       x="0"
       y="0"
       xlink:href="#use219"
       id="use221"
       width="100%"
       height="100%" />
    <use
       x="0"
       y="0"
       xlink:href="#use221"
       id="use223"
       width="100%"
       height="100%" />
    <use
       x="0"
       y="0"
       xlink:href="#use223"
       id="use225"
       width="100%"
       height="100%" />
    <use
       x="0"
       y="0"
       xlink:href="#use225"
       id="use227"
       width="100%"
       height="100%" />
    <use
       x="0"
       y="0"
       xlink:href="#use227"
       id="use229"
       width="100%"
       height="100%" />
    <use
       x="0"
       y="0"
       xlink:href="#use229"
       id="use231"
       width="100%"
       height="100%" />
    <use
       x="0"
       y="0"
       xlink:href="#use231"
       id="use233"
       width="100%"
       height="100%" />
    <use
       x="0"
       y="0"
       xlink:href="#use233"
       id="use235"
       width="100%"
       height="100%" />
    <use
       x="0"
       y="0"
       xlink:href="#use235"
       id="use237"
       width="100%"
       height="100%" />
    <use
       x="0"
       y="0"
       xlink:href="#use237"
       id="use239"
       width="100%"
       height="100%" />
    <use
       x="0"
       y="0"
       xlink:href="#use239"
       id="use241"
       width="100%"
       height="100%" />
    <use
       x="0"
       y="0"
       xlink:href="#use241"
       id="use243"
       width="100%"
       height="100%" />
    <use
       x="0"
       y="0"
       xlink:href="#use243"
       id="use245"
       width="100%"
       height="100%" />
    <use
       x="0"
       y="0"
       xlink:href="#use245"
       id="use247"
       width="100%"
       height="100%" />
    <use
       x="0"
       y="0"
       xlink:href="#use247"
       id="use249"
       width="100%"
       height="100%" />
    <use
       x="0"
       y="0"
       xlink:href="#use249"
       id="use251"
       width="100%"
       height="100%" />
    <use
       x="0"
       y="0"
       xlink:href="#use251"
       id="use253"
       width="100%"
       height="100%" />
    <use
       x="0"
       y="0"
       xlink:href="#use253"
       id="use255"
       width="100%"
       height="100%" />
    <use
       x="0"
       y="0"
       xlink:href="#use255"
       id="use257"
       width="100%"
       height="100%" />
    <use
       x="0"
       y="0"
       xlink:href="#use257"
       id="use259"
       width="100%"
       height="100%" />
    <use
       x="0"
       y="0"
       xlink:href="#use259"
       id="use261"
       width="100%"
       height="100%" />
    <use
       x="0"
       y="0"
       xlink:href="#use261"
       id="use263"
       width="100%"
       height="100%" />
    <use
       x="0"
       y="0"
       xlink:href="#use263"
       id="use265"
       width="100%"
       height="100%" />
    <use
       x="0"
       y="0"
       xlink:href="#use265"
       id="use267"
       width="100%"
       height="100%" />
    <use
       x="0"
       y="0"
       xlink:href="#use267"
       id="use269"
       width="100%"
       height="100%" />
    <use
       x="0"
       y="0"
       xlink:href="#use269"
       id="use271"
       width="100%"
       height="100%" />
    <use
       x="0"
       y="0"
       xlink:href="#use271"
       id="use273"
       width="100%"
       height="100%" />
    <use
       x="0"
       y="0"
       xlink:href="#use273"
       id="use275"
       width="100%"
       height="100%" />
    <use
       x="0"
       y="0"
       xlink:href="#use275"
       id="use277"
       width="100%"
       height="100%" />
    <use
       x="0"
       y="0"
       xlink:href="#use277"
       id="use279"
       width="100%"
       height="100%" />
    <use
       x="0"
       y="0"
       xlink:href="#use279"
       id="use281"
       width="100%"
       height="100%" />
    <path
       style="fill:#ffa826;fill-opacity:1;stroke:#ffa826;stroke-width:0.54676378;stroke-opacity:1"
       d="M 110.25849,178.41426 17.171963,178.27599 V 149.0257 119.77541 H 206.51073 c 169.2429,0 189.68407,0.0899 192.59213,0.84739 5.9598,1.55234 10.3287,5.255 12.98074,11.00126 1.1362,2.46183 1.23095,3.54746 1.39953,16.0363 0.15325,11.35415 0.0374,13.92542 -0.75997,16.87135 -0.9029,3.33564 -3.37601,7.2981 -5.9339,9.50739 -2.15575,1.86193 -6.42367,3.75511 -8.97565,3.98144 -3.61355,0.32047 -177.02008,0.55789 -287.55512,0.39372 z"
       id="path1144"
       inkscape:connector-curvature="0"
       transform="scale(0.26458333)" />
    <path
       style="fill:#ffa826;fill-opacity:1;stroke:#ffa826;stroke-width:0.54676378;stroke-opacity:1"
       d="M 17.171963,67.286091 V 37.760848 l 171.000367,0.0031 c 109.53307,0.002 171.69094,0.194908 172.92154,0.536793 3.27628,0.910222 7.79283,3.988547 9.84614,6.710793 3.80184,5.040426 4.08883,6.603899 4.08883,22.274606 0,15.736998 -0.26849,17.228959 -3.98506,22.143933 -2.14612,2.838124 -6.62493,5.917717 -9.94991,6.841469 -1.2306,0.341885 -63.38847,0.534838 -172.92154,0.53679 l -171.000367,0.0031 z"
       id="path1146"
       inkscape:connector-curvature="0"
       transform="scale(0.26458333)" />
    <rect
       style="fill:#ffa826;fill-opacity:1;stroke:#ffbe26;stroke-width:0.05931922;stroke-opacity:1"
       id="rect1148"
       width="30.876604"
       height="24.643831"
       x="37.198616"
       y="88.438454"
       ry="1.6583486" />
    <rect
       style="display:inline;fill:#ffa826;fill-opacity:1;stroke:#ffbe26;stroke-width:0.09866522;stroke-opacity:1"
       id="rect1148-1"
       width="85.558029"
       height="24.604486"
       x="98.593063"
       y="88.442093"
       ry="1.6557009" />
    <rect
       style="display:inline;fill:#ffa826;fill-opacity:1;stroke:#ffbe26;stroke-width:0.05931922;stroke-opacity:1"
       id="rect1148-5"
       width="30.876602"
       height="24.643833"
       x="37.198616"
       y="123.21185"
       ry="1.6583486" />
    <rect
       style="display:inline;fill:#ffa826;fill-opacity:1;stroke:#ffbe26;stroke-width:0.09866522;stroke-opacity:1"
       id="rect1148-1-9"
       width="85.558029"
       height="24.604486"
       x="98.593063"
       y="123.68262"
       ry="1.6557009" />
  </g>
  <g
     inkscape:groupmode="layer"
     id="layer5"
     inkscape:label="pasek tekst"
     style="display:inline">
    <text
       xml:space="preserve"
       style="font-style:normal;font-variant:normal;font-weight:normal;font-stretch:normal;font-size:4.93888903px;line-height:1.25;font-family:'Geometr212 BkCn BT';-inkscape-font-specification:'Geometr212 BkCn BT';letter-spacing:0px;word-spacing:0px;display:inline;opacity:1;fill:#000000;fill-opacity:1;stroke:none;stroke-width:0.26458332"
       x="11.31999"
       y="68.766006"
       id="text1201"><tspan
         sodipodi:role="line"
         id="tspan1199"
         x="11.31999"
         y="68.766006"
         style="font-style:normal;font-variant:normal;font-weight:normal;font-stretch:normal;font-size:4.23333311px;font-family:'Geometr212 BkCn BT';-inkscape-font-specification:'Geometr212 BkCn BT';stroke-width:0.26458332">Strona główna</tspan></text>
    <text
       xml:space="preserve"
       style="font-style:normal;font-variant:normal;font-weight:normal;font-stretch:normal;font-size:4.93888903px;line-height:1.25;font-family:'Geometr212 BkCn BT';-inkscape-font-specification:'Geometr212 BkCn BT';letter-spacing:0px;word-spacing:0px;display:inline;opacity:1;fill:#000000;fill-opacity:1;stroke:none;stroke-width:0.26458332"
       x="45.49081"
       y="68.649216"
       id="text1201-0"><tspan
         sodipodi:role="line"
         id="tspan1199-1"
         x="45.49081"
         y="68.649216"
         style="font-style:normal;font-variant:normal;font-weight:normal;font-stretch:normal;font-size:4.23333311px;font-family:'Geometr212 BkCn BT';-inkscape-font-specification:'Geometr212 BkCn BT';stroke-width:0.26458332">Prezenterzy</tspan></text>
    <text
       xml:space="preserve"
       style="font-style:normal;font-variant:normal;font-weight:normal;font-stretch:normal;font-size:4.93888903px;line-height:1.25;font-family:'Geometr212 BkCn BT';-inkscape-font-specification:'Geometr212 BkCn BT';letter-spacing:0px;word-spacing:0px;display:inline;opacity:1;fill:#000000;fill-opacity:1;stroke:none;stroke-width:0.26458332"
       x="77.923592"
       y="68.675056"
       id="text1201-2"><tspan
         sodipodi:role="line"
         id="tspan1199-7"
         x="77.923592"
         y="68.675056"
         style="font-style:normal;font-variant:normal;font-weight:normal;font-stretch:normal;font-size:4.23333311px;font-family:'Geometr212 BkCn BT';-inkscape-font-specification:'Geometr212 BkCn BT';stroke-width:0.26458332">Propozycje</tspan></text>
    <text
       xml:space="preserve"
       style="font-style:normal;font-variant:normal;font-weight:normal;font-stretch:normal;font-size:4.93888903px;line-height:1.25;font-family:'Geometr212 BkCn BT';-inkscape-font-specification:'Geometr212 BkCn BT';letter-spacing:0px;word-spacing:0px;display:inline;opacity:1;fill:#000000;fill-opacity:1;stroke:none;stroke-width:0.26458332"
       x="113.90862"
       y="69.002678"
       id="text1201-8"><tspan
         sodipodi:role="line"
         id="tspan1199-6"
         x="113.90862"
         y="69.002678"
         style="font-style:normal;font-variant:normal;font-weight:normal;font-stretch:normal;font-size:4.23333311px;font-family:'Geometr212 BkCn BT';-inkscape-font-specification:'Geometr212 BkCn BT';stroke-width:0.26458332">Forum</tspan></text>
    <text
       xml:space="preserve"
       style="font-style:normal;font-variant:normal;font-weight:normal;font-stretch:normal;font-size:4.93888903px;line-height:1.25;font-family:'Geometr212 BkCn BT';-inkscape-font-specification:'Geometr212 BkCn BT';letter-spacing:0px;word-spacing:0px;display:inline;opacity:1;fill:#000000;fill-opacity:1;stroke:none;stroke-width:0.26458332"
       x="144.65158"
       y="68.675056"
       id="text1201-4"><tspan
         sodipodi:role="line"
         id="tspan1199-66"
         x="144.65158"
         y="68.675056"
         style="font-style:normal;font-variant:normal;font-weight:normal;font-stretch:normal;font-size:4.23333311px;font-family:'Geometr212 BkCn BT';-inkscape-font-specification:'Geometr212 BkCn BT';stroke-width:0.26458332">Ankiety</tspan></text>
    <text
       xml:space="preserve"
       style="font-style:normal;font-variant:normal;font-weight:normal;font-stretch:normal;font-size:4.93888903px;line-height:1.25;font-family:'Geometr212 BkCn BT';-inkscape-font-specification:'Geometr212 BkCn BT';letter-spacing:0px;word-spacing:0px;display:inline;opacity:1;fill:#000000;fill-opacity:1;stroke:none;stroke-width:0.26458332"
       x="176.15462"
       y="69.028526"
       id="text1201-05"><tspan
         sodipodi:role="line"
         id="tspan1199-4"
         x="176.15462"
         y="69.028526"
         style="font-style:normal;font-variant:normal;font-weight:normal;font-stretch:normal;font-size:4.23333311px;font-family:'Geometr212 BkCn BT';-inkscape-font-specification:'Geometr212 BkCn BT';stroke-width:0.26458332">Kontakt</tspan></text>
    <text
       xml:space="preserve"
       style="font-style:normal;font-weight:normal;font-size:8.46666622px;line-height:1.25;font-family:sans-serif;letter-spacing:0px;word-spacing:0px;display:inline;fill:#000000;fill-opacity:1;stroke:none;stroke-width:0.26458332"
       x="106.03869"
       y="99.297638"
       id="text1171"><tspan
         sodipodi:role="line"
         id="tspan1169"
         x="106.03869"
         y="99.297638"
         style="font-size:8.18444443px;stroke-width:0.26458332">Jacek Kaczmarek</tspan></text>
    <rect
       style="display:inline;fill:#ff8c26;fill-opacity:1;stroke:#ffbe26;stroke-width:0.07558459;stroke-opacity:1"
       id="rect1150-0"
       width="40.69508"
       height="7.4222231"
       x="121.4045"
       y="102.07506"
       ry="0.64606291" />
    <text
       xml:space="preserve"
       style="font-style:normal;font-weight:normal;font-size:8.46666622px;line-height:1.25;font-family:sans-serif;letter-spacing:0px;word-spacing:0px;display:inline;fill:#000000;fill-opacity:1;stroke:none;stroke-width:0.26458332"
       x="132.21324"
       y="107.51146"
       id="text1175"><tspan
         sodipodi:role="line"
         id="tspan1173"
         x="132.21324"
         y="107.51146"
         style="font-size:5.64444447px;stroke-width:0.26458332">+/- <tspan
   style="font-size:5.64444447px;fill:#55d400;stroke:#55d400"
   id="tspan1181">13</tspan></tspan></text>
    <rect
       style="display:inline;fill:#ff8c26;fill-opacity:1;stroke:#ffbe26;stroke-width:0.03428191;stroke-opacity:1"
       id="rect1150-0-5"
       width="8.3252134"
       height="7.4635262"
       x="109.45555"
       y="101.84535"
       ry="0.64965808" />
    <rect
       style="display:inline;fill:#ff8c26;fill-opacity:1;stroke:#ffbe26;stroke-width:0.03428191;stroke-opacity:1"
       id="rect1150-0-5-8"
       width="8.3252134"
       height="7.4635262"
       x="167.02567"
       y="101.66629"
       ry="0.64965808" />
    <text
       xml:space="preserve"
       style="font-style:normal;font-weight:normal;font-size:8.46666622px;line-height:1.25;font-family:sans-serif;letter-spacing:0px;word-spacing:0px;fill:#000000;fill-opacity:1;stroke:none;stroke-width:0.26458332"
       x="110.15377"
       y="108.23615"
       id="text4724"><tspan
         sodipodi:role="line"
         id="tspan4722"
         x="110.15377"
         y="108.23615"
         style="stroke-width:0.26458332">+</tspan></text>
    <text
       xml:space="preserve"
       style="font-style:normal;font-weight:normal;font-size:8.46666622px;line-height:1.25;font-family:sans-serif;letter-spacing:0px;word-spacing:0px;fill:#000000;fill-opacity:1;stroke:none;stroke-width:0.26458332"
       x="169.26591"
       y="108.09143"
       id="text4728"><tspan
         sodipodi:role="line"
         id="tspan4726"
         x="169.26591"
         y="108.09143"
         style="stroke-width:0.26458332">-</tspan></text>
    <rect
       style="display:inline;fill:#ff8c26;fill-opacity:1;stroke:#ffbe26;stroke-width:0.07558459;stroke-opacity:1"
       id="rect1150-0-2"
       width="40.69508"
       height="7.4222236"
       x="121.4045"
       y="136.76884"
       ry="0.64606291" />
    <text
       xml:space="preserve"
       style="font-style:normal;font-weight:normal;font-size:8.46666622px;line-height:1.25;font-family:sans-serif;letter-spacing:0px;word-spacing:0px;display:inline;fill:#000000;fill-opacity:1;stroke:none;stroke-width:0.26458332"
       x="115.53393"
       y="133.9222"
       id="text1171-2"><tspan
         sodipodi:role="line"
         id="tspan1169-7"
         x="115.53393"
         y="133.9222"
         style="font-size:8.18444443px;stroke-width:0.26458332">Jan Kowalski</tspan></text>
    <rect
       style="display:inline;fill:#ff8c26;fill-opacity:1;stroke:#ffbe26;stroke-width:0.03428191;stroke-opacity:1"
       id="rect1150-0-5-2"
       width="8.3252134"
       height="7.4635262"
       x="109.16197"
       y="136.63972"
       ry="0.64965808" />
    <text
       xml:space="preserve"
       style="font-style:normal;font-weight:normal;font-size:8.46666622px;line-height:1.25;font-family:sans-serif;letter-spacing:0px;word-spacing:0px;display:inline;fill:#000000;fill-opacity:1;stroke:none;stroke-width:0.26458332"
       x="109.98683"
       y="142.81369"
       id="text4724-5"><tspan
         sodipodi:role="line"
         id="tspan4722-7"
         x="109.98683"
         y="142.81369"
         style="stroke-width:0.26458332">+</tspan></text>
    <rect
       style="display:inline;fill:#ff8c26;fill-opacity:1;stroke:#ffbe26;stroke-width:0.03428191;stroke-opacity:1"
       id="rect1150-0-5-8-6"
       width="8.3252134"
       height="7.4635262"
       x="167.15379"
       y="137.01958"
       ry="0.64965808" />
    <text
       xml:space="preserve"
       style="display:inline;font-style:normal;font-weight:normal;font-size:8.46666622px;line-height:1.25;font-family:sans-serif;letter-spacing:0px;word-spacing:0px;fill:#000000;fill-opacity:1;stroke:none;stroke-width:0.26458332"
       x="169.52065"
       y="143.3181"
       id="text4728-1"><tspan
         sodipodi:role="line"
         id="tspan4726-3"
         x="169.52065"
         y="143.3181"
         style="stroke-width:0.26458332">-</tspan></text>
    <text
       xml:space="preserve"
       style="font-style:normal;font-weight:normal;font-size:8.46666622px;line-height:1.25;font-family:sans-serif;letter-spacing:0px;word-spacing:0px;display:inline;fill:#000000;fill-opacity:1;stroke:none;stroke-width:0.26458332"
       x="131.76875"
       y="142.22342"
       id="text1175-6"><tspan
         sodipodi:role="line"
         id="tspan1173-4"
         x="131.76875"
         y="142.22342"
         style="font-size:5.64444447px;stroke-width:0.26458332">+/- <tspan
   style="fill:#ff0000"
   id="tspan4970">5</tspan></tspan></text>
  </g>
  <g
     inkscape:label="tytuł"
     inkscape:groupmode="layer"
     id="layer1"
     style="display:inline">
    <text
       xml:space="preserve"
       style="font-style:normal;font-variant:normal;font-weight:normal;font-stretch:normal;font-size:4.93888903px;line-height:1.5;font-family:'Geometr212 BkCn BT';-inkscape-font-specification:'Geometr212 BkCn BT';text-align:end;letter-spacing:0px;word-spacing:0px;text-anchor:end;display:inline;opacity:1;fill:#000000;fill-opacity:1;stroke:none;stroke-width:0.26458332"
       x="107.20808"
       y="23.768404"
       id="text1201-2-0"><tspan
         sodipodi:role="line"
         id="tspan1199-7-5"
         x="111.03902"
         y="23.768404"
         style="font-style:normal;font-variant:normal;font-weight:normal;font-stretch:normal;font-size:14.11111069px;line-height:1.5;font-family:'Geometr212 BkCn BT';-inkscape-font-specification:'Geometr212 BkCn BT';text-align:end;text-anchor:end;stroke-width:0.26458332">Radiowęzeł       </tspan><tspan
         sodipodi:role="line"
         x="107.20808"
         y="44.93507"
         style="font-style:normal;font-variant:normal;font-weight:normal;font-stretch:normal;font-size:14.11111069px;line-height:1.5;font-family:'Geometr212 BkCn BT';-inkscape-font-specification:'Geometr212 BkCn BT';text-align:end;text-anchor:end;stroke-width:0.26458332"
         id="tspan4689">         W1 L2</tspan></text>
  </g>
  <g
     inkscape:groupmode="layer"
     id="layer4"
     inkscape:label="pasek"
     style="display:inline">
    <rect
       style="display:inline;fill:none;stroke:none;stroke-width:0.39093563"
       id="rect32"
       width="31.609064"
       height="10.793163"
       x="10"
       y="-72.793159"
       ry="1.055479"
       transform="scale(1,-1)" />
    <use
       style="display:inline;stroke:#ffffff"
       x="0"
       y="0"
       xlink:href="#rect32"
       id="use361"
       transform="translate(31.609062)"
       width="100%"
       height="100%" />
    <use
       style="display:inline;stroke:#ffffff"
       height="100%"
       width="100%"
       transform="translate(63.218123)"
       id="use363"
       xlink:href="#rect32"
       y="0"
       x="0" />
    <use
       style="display:inline;stroke:#ffffff"
       x="0"
       y="0"
       xlink:href="#rect32"
       id="use365"
       transform="translate(94.827185)"
       width="100%"
       height="100%" />
    <use
       style="display:inline;stroke:#ffffff"
       height="100%"
       width="100%"
       transform="translate(126.43625)"
       id="use367"
       xlink:href="#rect32"
       y="0"
       x="0" />
    <use
       style="display:inline;stroke:#ffffff"
       x="0"
       y="0"
       xlink:href="#rect32"
       id="use369"
       transform="translate(158.39094,4.4313152e-6)"
       width="100%"
       height="100%" />
  </g>
</svg>
